<svg version="1" xmlns="http://www.w3.org/2000/svg" width="346.667" height="346.667" viewBox="0 0 260.000000 260.000000"><path d="M93 45.6c-9.3 4.1-15 12.3-15 22.1 0 5-1 6.7-2.6 4.2-.4-.6-3.6-2.5-7.3-4.2-9.2-4.1-20.9-4.9-30.9-1.8C17 72 3.5 93.2 7 113.2c4.1 23 21.4 36.8 46.1 36.8 6.4 0 7 .2 6.3 1.7-4.2 9.6-5.6 16-5.2 24.3.4 10.3 2.9 15.9 9.9 22.5 6 5.6 11.4 8.3 20.2 10.1 12.5 2.6 24-.4 33-8.6 5.5-5 10-12.7 11.2-19.3.4-2 .9-3.7 1.1-3.7.2 0 2.3 1.3 4.6 3 9.5 6.6 26.1 7.8 37.1 2.6 9-4.3 14.7-11.9 18.2-24.1 1-3.3 1.9-6.1 2-6.3.2-.2 2.5 1.1 5.1 2.8 5.9 3.7 16.1 7 21.8 7 13.8 0 26.2-8.7 33-23 2.8-5.8 3.1-7.5 3.1-15.5s-.4-9.7-3.2-15.7c-9.2-19.4-30.4-27-50.9-18.2-.8.3-1.3-2.2-1.6-7.9-.3-6.6-1-9.7-3.3-14.3-11.6-23.7-42.8-29.1-61-10.5-2.7 2.7-5.4 6-6.1 7.3l-1.2 2.3-.8-3c-1.8-7.8-7.8-15.1-14.6-17.9-4.7-2-14.2-2-18.8 0zm17.4 11.5c3.2 2.5 3.3 4.4.2 6.4-4.5 2.9-9.8-1.3-8.1-6.5.8-2.6 4.5-2.6 7.9.1zm58.9 5.8c1.4.5 4.2 2.5 6.2 4.3 14 12.3 7.2 35.4-11.3 38.4-12.5 2-25.2-9.1-25.2-22 0-7.6 5-16 11.8-19.6 4-2.1 14.2-2.7 18.5-1.1zM61.6 84.8c4.6 2.4 8.4 6.3 11 11.2 2.8 5.2 2.6 17.1-.3 22.6-9.4 17.6-33.9 18-44 .6-2.3-3.9-2.7-5.8-2.7-11.7 0-5.9.4-7.8 2.7-11.7 7.1-12.1 21.7-16.9 33.3-11zm62.6 14.1l3.3 2.9-2.1 2.9c-5.1 6.9-14.4.8-10.4-6.8 1.5-2.8 5.5-2.4 9.2 1zm107.9 9.1c4.5 4.3 5 7.2 1.4 8.8-6.3 2.9-12.9-.7-12.9-7.1 0-7.4 4.8-8.1 11.5-1.7zm-68.6 22.9c11.2 5 15.8 19.5 9.2 29.2-4.3 6.3-8.9 9.1-15.9 9.6-5.2.4-7 .1-10.7-1.9-6.8-3.5-10.2-8.4-10.8-15.7-.9-10.2 3.3-17.8 12.2-21.7 4.3-1.9 11.3-1.7 16 .5zM101 157.5c1.7 2 .5 4.5-2 4.5-2.3 0-3.5-2.2-2.6-4.5.7-1.9 3-1.9 4.6 0z"/></svg>